<?xml version="1.0" encoding="UTF-8"?>
<svg version="1.1" xmlns="http://www.w3.org/2000/svg" width="494" height="506">
<path d="M0 0 C2.92061442 1.06326516 4.92808766 2.42701209 7.35546875 4.36328125 C8.14566406 4.98074219 8.93585938 5.59820313 9.75 6.234375 C10.63751953 7.07162109 10.63751953 7.07162109 11.54296875 7.92578125 C11.54296875 8.58578125 11.54296875 9.24578125 11.54296875 9.92578125 C12.43024658 10.33546143 12.43024658 10.33546143 13.33544922 10.75341797 C15.4769002 11.89069375 17.05704271 13.07858357 18.86328125 14.68359375 C19.47679443 15.22330811 20.09030762 15.76302246 20.72241211 16.3190918 C21.3644458 16.89054932 22.00647949 17.46200684 22.66796875 18.05078125 C27.94661158 22.70378808 33.27714015 27.18083498 38.8828125 31.4375 C39.43066406 31.92863281 39.97851562 32.41976562 40.54296875 32.92578125 C40.54296875 33.58578125 40.54296875 34.24578125 40.54296875 34.92578125 C41.07277344 35.14621094 41.60257813 35.36664063 42.1484375 35.59375 C45.40250673 37.40392554 48.06965085 39.79547717 50.85546875 42.23828125 C51.46285889 42.76446045 52.07024902 43.29063965 52.69604492 43.83276367 C54.64894811 45.52597893 56.59657635 47.2250873 58.54296875 48.92578125 C61.1455058 51.19849182 63.74956421 53.46943258 66.35546875 55.73828125 C66.98179199 56.28500488 67.60811523 56.83172852 68.25341797 57.39501953 C72.40580562 60.99991206 76.65242078 64.41976569 81.1015625 67.65625 C81.57722656 68.07519531 82.05289063 68.49414062 82.54296875 68.92578125 C82.54296875 69.58578125 82.54296875 70.24578125 82.54296875 70.92578125 C83.10628906 71.16941406 83.66960937 71.41304688 84.25 71.6640625 C86.97636156 73.16425804 88.9584025 74.98756387 91.23046875 77.11328125 C95.29111903 80.85414778 99.47191689 84.25613603 103.92578125 87.515625 C104.45945312 87.98097656 104.993125 88.44632812 105.54296875 88.92578125 C105.54296875 89.58578125 105.54296875 90.24578125 105.54296875 90.92578125 C106.09082031 91.16554688 106.63867188 91.4053125 107.203125 91.65234375 C110.10304815 93.23059908 112.44668883 95.18519802 114.98046875 97.30078125 C119.13601061 100.75729136 119.13601061 100.75729136 123.390625 104.08984375 C124.10089844 104.69570312 124.81117188 105.3015625 125.54296875 105.92578125 C125.54296875 106.58578125 125.54296875 107.24578125 125.54296875 107.92578125 C126.20296875 107.92578125 126.86296875 107.92578125 127.54296875 107.92578125 C129.24476667 110.01613126 130.81259467 112.09699807 132.35546875 114.30078125 C132.80543213 114.94128418 133.25539551 115.58178711 133.71899414 116.24169922 C139.82380958 125.0753749 143.33720514 133.38878886 145.54296875 143.92578125 C145.72730469 144.71597656 145.91164063 145.50617188 146.1015625 146.3203125 C148.90867956 162.88975566 144.60769343 179.90111288 135.54296875 193.92578125 C130.4353591 201.00983916 124.56181098 207.69898384 117.54296875 212.92578125 C116.88296875 212.92578125 116.22296875 212.92578125 115.54296875 212.92578125 C115.54296875 213.58578125 115.54296875 214.24578125 115.54296875 214.92578125 C113.82253159 216.20484971 112.03788807 217.39789116 110.23046875 218.55078125 C106.17242499 221.18827294 102.18681258 223.86383033 98.29296875 226.73828125 C93.83195523 230.01824947 89.30119157 233.17701931 84.73046875 236.30078125 C79.04381964 240.18808672 73.41253068 244.14079441 67.82177734 248.16455078 C63.54350098 251.23456006 59.20879274 254.21348241 54.85546875 257.17578125 C48.87720639 261.25051366 43.03509715 265.48282726 37.23046875 269.80078125 C30.62071805 274.70805125 23.94760163 279.50555704 17.16796875 284.17578125 C16.37737061 284.72476074 15.58677246 285.27374023 14.7722168 285.83935547 C11.1382549 288.32291066 7.76588914 290.54618176 3.54296875 291.92578125 C3.54296875 292.58578125 3.54296875 293.24578125 3.54296875 293.92578125 C1.3984375 294.64453125 1.3984375 294.64453125 -1.45703125 294.92578125 C-4.21875 293.51953125 -4.21875 293.51953125 -7.14453125 291.42578125 C-8.20285156 290.68070312 -9.26117188 289.935625 -10.3515625 289.16796875 C-11.37636719 288.42804688 -12.40117187 287.688125 -13.45703125 286.92578125 C-15.08103045 285.79933702 -16.70596764 284.67424338 -18.33203125 283.55078125 C-25.88709645 278.22844299 -33.39903396 272.84423133 -40.90234375 267.44921875 C-47.70332956 262.56573849 -54.55885613 257.77335239 -61.47143555 253.04907227 C-66.65208504 249.50089822 -71.77153169 245.87361522 -76.85351562 242.18554688 C-79.30214201 240.41791695 -81.72822973 238.77060156 -84.3515625 237.26953125 C-85.04636719 236.82609375 -85.74117187 236.38265625 -86.45703125 235.92578125 C-86.45703125 235.26578125 -86.45703125 234.60578125 -86.45703125 233.92578125 C-87.11574219 233.71050781 -87.77445313 233.49523437 -88.453125 233.2734375 C-92.51413952 231.45152592 -95.91806399 228.95920147 -99.51953125 226.36328125 C-100.2667041 225.83041504 -101.01387695 225.29754883 -101.78369141 224.74853516 C-107.29609276 220.8023314 -112.74059909 216.77142465 -118.13671875 212.66796875 C-119.87057531 211.36611685 -121.65298255 210.12848039 -123.45703125 208.92578125 C-123.45703125 208.26578125 -123.45703125 207.60578125 -123.45703125 206.92578125 C-124.11703125 206.92578125 -124.77703125 206.92578125 -125.45703125 206.92578125 C-125.45703125 206.26578125 -125.45703125 205.60578125 -125.45703125 204.92578125 C-126.11703125 204.92578125 -126.77703125 204.92578125 -127.45703125 204.92578125 C-129.31061508 202.7360082 -131.02124394 200.55297639 -132.70703125 198.23828125 C-133.20066162 197.56216797 -133.69429199 196.88605469 -134.20288086 196.18945312 C-146.06148061 179.51213934 -148.20146066 163.04188518 -146.45703125 142.92578125 C-143.86238574 128.26720994 -135.17264021 115.01838969 -124.45703125 104.92578125 C-122.97203125 104.43078125 -122.97203125 104.43078125 -121.45703125 103.92578125 C-121.45703125 103.26578125 -121.45703125 102.60578125 -121.45703125 101.92578125 C-119.88416441 100.51139719 -118.24563129 99.16973724 -116.58203125 97.86328125 C-112.66580028 94.73332059 -108.85502822 91.54742005 -105.14453125 88.17578125 C-94.95495157 78.92578125 -94.95495157 78.92578125 -92.45703125 78.92578125 C-92.45703125 78.26578125 -92.45703125 77.60578125 -92.45703125 76.92578125 C-90.8227037 75.44808907 -89.12226757 74.04308806 -87.39453125 72.67578125 C-83.99782493 69.96629515 -80.64389477 67.2477798 -77.39453125 64.36328125 C-74.45703125 61.92578125 -74.45703125 61.92578125 -72.45703125 61.92578125 C-72.45703125 61.26578125 -72.45703125 60.60578125 -72.45703125 59.92578125 C-70.88416441 58.51139719 -69.24563129 57.16973724 -67.58203125 55.86328125 C-63.66580028 52.73332059 -59.85502822 49.54742005 -56.14453125 46.17578125 C-45.95495157 36.92578125 -45.95495157 36.92578125 -43.45703125 36.92578125 C-43.45703125 36.26578125 -43.45703125 35.60578125 -43.45703125 34.92578125 C-41.88416441 33.51139719 -40.24563129 32.16973724 -38.58203125 30.86328125 C-34.76867563 27.8155226 -31.05894316 24.72077784 -27.45703125 21.42578125 C-23.14448424 17.49596424 -18.68377134 13.79821637 -14.1328125 10.1484375 C-10.76680302 7.35243838 -7.63250437 4.34326598 -4.52734375 1.26171875 C-2.45703125 -0.07421875 -2.45703125 -0.07421875 0 0 Z " fill="#4A7B46" transform="translate(260.45703125,21.07421875)"/>
<path d="M0 0 C4.30902691 0.54152941 6.76064979 2.00297871 10.1875 4.625 C11.64349609 5.71941406 11.64349609 5.71941406 13.12890625 6.8359375 C14.07636719 7.55007813 15.02382812 8.26421875 16 9 C17.53551477 10.09203554 19.07703486 11.17568573 20.625 12.25 C24.29142409 14.80330003 27.94524636 17.37339671 31.59204102 19.95458984 C39.2637307 25.38367561 46.96705915 30.76546946 54.6875 36.125 C60.96520204 40.48298116 67.23281201 44.85105988 73.4375 49.3125 C78.15121486 52.69978111 82.90283271 56.02615663 87.6875 59.3125 C88.3364624 59.75883789 88.9854248 60.20517578 89.65405273 60.66503906 C93.50064794 63.30435641 97.3635098 65.91783914 101.23828125 68.515625 C102.11331299 69.10561279 102.98834473 69.69560059 103.88989258 70.3034668 C105.60853244 71.46171207 107.33094854 72.61437676 109.05737305 73.76098633 C109.83250244 74.2845874 110.60763184 74.80818848 111.40625 75.34765625 C112.10041016 75.81179932 112.79457031 76.27594238 113.50976562 76.75415039 C114.00154297 77.16528076 114.49332031 77.57641113 115 78 C115 78.66 115 79.32 115 80 C115.66902344 80.22429687 116.33804688 80.44859375 117.02734375 80.6796875 C120.88417347 82.39270779 124.12567705 84.69496885 127.5625 87.125 C128.97981229 88.11682415 130.39778825 89.10770056 131.81640625 90.09765625 C132.86852295 90.83266357 132.86852295 90.83266357 133.94189453 91.58251953 C137.879518 94.29448179 141.9100272 96.86532325 145.9375 99.44140625 C146.9584375 100.21291016 146.9584375 100.21291016 148 101 C148 101.66 148 102.32 148 103 C148.69996094 103.24234375 149.39992187 103.4846875 150.12109375 103.734375 C153.47403346 105.20839463 156.10811538 107.08177605 159.0625 109.25 C160.29102451 110.14151058 161.52023469 111.03207679 162.75 111.921875 C163.75546875 112.65180664 163.75546875 112.65180664 164.78125 113.39648438 C169.02085482 116.46049455 173.28896678 119.48357152 177.5625 122.5 C178.4191626 123.11133789 179.2758252 123.72267578 180.15844727 124.35253906 C180.97369873 124.92713867 181.7889502 125.50173828 182.62890625 126.09375 C183.35150635 126.60615234 184.07410645 127.11855469 184.81860352 127.64648438 C187.92861809 129.57619012 190.6143463 131.2247006 194.3125 130.625 C194.869375 130.41875 195.42625 130.2125 196 130 C196 129.34 196 128.68 196 128 C198.26117983 126.35084618 200.52093243 124.8186317 202.875 123.3125 C204.25201239 122.41645522 205.62831242 121.51931477 207.00390625 120.62109375 C207.68340332 120.17878418 208.36290039 119.73647461 209.06298828 119.28076172 C212.49349249 117.01249539 215.8185952 114.59753716 219.14453125 112.1796875 C221 111 221 111 223 111 C223 110.34 223 109.68 223 109 C225.15740487 107.43626399 227.31619727 105.98890775 229.5625 104.5625 C235.96085537 100.4219338 242.12041402 96.05034742 248.16235352 91.40454102 C252.67895839 88 252.67895839 88 256 88 C256 87.34 256 86.68 256 86 C258.15741618 84.43625579 260.316478 82.98935865 262.5625 81.5625 C268.06411033 77.98937722 273.42627913 74.29354197 278.6875 70.375 C284.01889189 66.41496975 289.44103817 62.66067424 294.9921875 59.01171875 C298.26959164 56.81968871 301.48526277 54.54955081 304.6875 52.25 C305.26870605 51.83266602 305.84991211 51.41533203 306.44873047 50.98535156 C307.66509741 50.11157211 308.88140454 49.23770938 310.09765625 48.36376953 C319.5499042 41.58755584 329.07658789 34.92408823 338.6875 28.375 C344.20532976 24.61483251 349.69891169 20.82904859 355.125 16.9375 C355.66842041 16.54957275 356.21184082 16.16164551 356.77172852 15.76196289 C360.03461286 13.42777874 363.27232556 11.06234262 366.5 8.6796875 C368.04152344 7.55709496 369.58318822 6.43469648 371.125 5.3125 C371.8483252 4.77036865 372.57165039 4.2282373 373.31689453 3.66967773 C373.99864746 3.17669189 374.68040039 2.68370605 375.3828125 2.17578125 C375.98496582 1.73145752 376.58711914 1.28713379 377.20751953 0.8293457 C379 0 379 0 381.09448242 0.15014648 C383.48085665 1.21446022 383.97325679 2.09285484 385.10546875 4.421875 C385.44900391 5.11796875 385.79253906 5.8140625 386.14648438 6.53125 C386.49001953 7.2634375 386.83355469 7.995625 387.1875 8.75 C387.54263672 9.46671875 387.89777344 10.1834375 388.26367188 10.921875 C393.58311596 21.90395312 394.09469834 36.77822667 390.4375 48.4375 C387.87806842 54.8961378 384.45421054 60.98424008 381 67 C380.34 67 379.68 67 379 67 C378.73316406 67.58265625 378.46632813 68.1653125 378.19140625 68.765625 C371.9817349 80.41130372 359.54018775 88.17585561 348.91015625 95.34765625 C345.74644087 97.48231163 342.63906432 99.67822147 339.5625 101.9375 C332.84899622 106.86475016 326.03120021 111.64245218 319.22167969 116.43554688 C316.34966635 118.45794923 313.47997115 120.48362305 310.6105957 122.50976562 C309.20309742 123.50356199 307.79538237 124.49705143 306.38745117 125.49023438 C302.77957033 128.03550593 299.17454969 130.584683 295.57421875 133.140625 C288.37842914 138.24381843 281.15672721 143.27040494 273.78515625 148.1171875 C269.91931283 150.73056271 266.19235993 153.51951028 262.47265625 156.3359375 C260.04254409 157.97136843 257.75316677 159.02481749 255 160 C255 160.66 255 161.32 255 162 C252.86430704 163.56801595 250.72950681 165.01319228 248.5 166.4375 C247.13062484 167.32806686 245.76216753 168.2200463 244.39453125 169.11328125 C243.6773291 169.58072754 242.96012695 170.04817383 242.22119141 170.52978516 C237.78940332 173.46320216 233.44640654 176.52962077 229.10546875 179.59545898 C224.21879168 183 224.21879168 183 222 183 C222 183.66 222 184.32 222 185 C220.09625645 186.44963959 218.12532841 187.81184323 216.125 189.125 C214.48917969 190.21167969 214.48917969 190.21167969 212.8203125 191.3203125 C210 193 210 193 208 193 C208 193.66 208 194.32 208 195 C206.11318498 196.40414141 204.16370061 197.72472938 202.1875 199 C201.10855469 199.70125 200.02960938 200.4025 198.91796875 201.125 C197.47357422 202.053125 197.47357422 202.053125 196 203 C195.01 203.66 194.02 204.32 193 205 C189.16058142 204.68279857 186.72537861 203.40958386 183.62890625 201.19140625 C182.81478271 200.61447021 182.00065918 200.03753418 181.16186523 199.44311523 C180.30407471 198.82251221 179.44628418 198.20190918 178.5625 197.5625 C177.66797119 196.92578369 176.77344238 196.28906738 175.85180664 195.63305664 C173.22856008 193.76354888 170.61322984 191.88347427 168 190 C165.64691421 188.31098938 163.29226239 186.62417195 160.9375 184.9375 C160.12321533 184.35246704 160.12321533 184.35246704 159.29248047 183.75561523 C154.47352477 180.30601466 149.58480453 176.96211 144.6875 173.625 C133.35101488 165.90011837 122.15841077 157.9792077 111 150 C105.85991832 146.32523403 100.71732468 142.65406763 95.5625 139 C94.85681885 138.49936035 94.1511377 137.9987207 93.42407227 137.48291016 C89.84738187 134.95939046 86.24736842 132.48514256 82.5859375 130.0859375 C81.53877563 129.39951172 81.53877563 129.39951172 80.47045898 128.69921875 C79.14093949 127.83320293 77.80725278 126.97354276 76.46899414 126.12109375 C74.94541089 125.13106673 73.46706222 124.0720018 72 123 C72 122.34 72 121.68 72 121 C71.33226562 120.77957031 70.66453125 120.55914062 69.9765625 120.33203125 C66.06557774 118.58183991 62.83151733 116.19936412 59.375 113.6875 C57.85776401 112.59887488 56.33949563 111.51168748 54.8203125 110.42578125 C54.03172852 109.86197754 53.24314453 109.29817383 52.43066406 108.71728516 C48.41075936 105.87718776 44.32670908 103.13259283 40.25 100.375 C32.60361456 95.18364133 25.2567542 89.72145917 18 84 C17.22527344 83.45601563 16.45054688 82.91203125 15.65234375 82.3515625 C14.83443359 81.68253906 14.83443359 81.68253906 14 81 C14 80.34 14 79.68 14 79 C13.34 79 12.68 79 12 79 C12 78.34 12 77.68 12 77 C11.34 77 10.68 77 10 77 C10 76.34 10 75.68 10 75 C9.34 75 8.68 75 8 75 C6.29371929 72.93132339 4.72853365 70.87511923 3.1875 68.6875 C2.73753662 68.0495752 2.28757324 67.41165039 1.82397461 66.75439453 C-7.10946229 53.8018013 -11.76457376 39.39768965 -9.68359375 23.59765625 C-8.03017396 15.12201787 -4.46653918 7.33788579 0 0 Z " fill="#1A4926" transform="translate(69,275)"/>
<path d="M0 0 C0.02578125 1.0415625 0.0515625 2.083125 0.078125 3.15625 C0.78418787 23.29325788 5.85143016 39.63688015 18.3984375 55.79296875 C20 58 20 58 21 61 C21.66 61 22.32 61 23 61 C23 61.66 23 62.32 23 63 C23.66 63 24.32 63 25 63 C25 63.66 25 64.32 25 65 C25.66 65 26.32 65 27 65 C27 65.66 27 66.32 27 67 C27.82564453 67.36738281 27.82564453 67.36738281 28.66796875 67.7421875 C31.49050871 69.26456249 33.80438523 71.1225809 36.3125 73.125 C42.70245918 78.14280558 49.32897815 82.80247674 56 87.4375 C57.00329346 88.13568848 58.00658691 88.83387695 59.0402832 89.55322266 C64.32269356 93.23807945 64.32269356 93.23807945 69.81640625 96.59008789 C70.53699219 97.05535889 71.25757813 97.52062988 72 98 C72 98.66 72 99.32 72 100 C72.68707031 100.23332031 73.37414062 100.46664062 74.08203125 100.70703125 C77.62237597 102.27577838 80.58881883 104.40206853 83.6875 106.6875 C84.9424854 107.59796362 86.1976946 108.50811884 87.453125 109.41796875 C88.06220703 109.86188965 88.67128906 110.30581055 89.29882812 110.76318359 C94.43148938 114.49482279 99.63218813 118.11822908 104.94921875 121.58203125 C105.98284546 122.25878906 105.98284546 122.25878906 107.03735352 122.94921875 C108.41271082 123.84735876 109.79203705 124.73945454 111.17553711 125.625 C112.81841314 126.69865897 114.41433302 127.84352022 116 129 C116 129.66 116 130.32 116 131 C116.72058594 131.26031006 117.44117188 131.52062012 118.18359375 131.78881836 C121.11362259 133.04886284 123.45805868 134.54268674 126.0625 136.37890625 C127.01866211 137.04921875 127.97482422 137.71953125 128.95996094 138.41015625 C130.46478027 139.47556641 130.46478027 139.47556641 132 140.5625 C133.02641602 141.28179687 134.05283203 142.00109375 135.11035156 142.7421875 C139.5174459 145.8314674 143.91352771 148.93572609 148.296875 152.05859375 C148.895 152.48132568 149.493125 152.90405762 150.109375 153.33959961 C151.63448403 154.41829651 153.1534423 155.50567523 154.671875 156.59375 C156.97467221 158.25851398 156.97467221 158.25851398 160 158 C160 157.34 160 156.68 160 156 C161.40625 154.87890625 161.40625 154.87890625 163.5 153.5625 C166.73908846 151.48430085 169.935292 149.3639219 173.08984375 147.16015625 C173.80527344 146.6612085 174.52070313 146.16226074 175.2578125 145.64819336 C176.70389951 144.63764936 178.1479364 143.6241649 179.58984375 142.60766602 C180.26015625 142.14158936 180.93046875 141.6755127 181.62109375 141.1953125 C182.2236499 140.77266113 182.82620605 140.35000977 183.44702148 139.91455078 C185 139 185 139 187 139 C187 138.34 187 137.68 187 137 C189.09465051 135.47689867 191.19140922 134.07356517 193.375 132.6875 C199.41494907 128.76364701 205.30472118 124.68023894 211.125 120.4375 C217.3284456 115.92220947 223.57514078 111.49472333 229.8984375 107.1484375 C233.08107641 104.94383876 236.23141222 102.69712718 239.375 100.4375 C245.87381609 95.77180477 252.43289376 91.19393712 259 86.625 C260.48765869 85.5894397 260.48765869 85.5894397 262.00537109 84.53295898 C264.66686002 82.68368384 267.33277565 80.84098805 270 79 C270.64324219 78.54979492 271.28648437 78.09958984 271.94921875 77.63574219 C275.77208626 75 275.77208626 75 278 75 C278 74.34 278 73.68 278 73 C279.68175383 71.52736092 281.42211247 70.12126535 283.1875 68.75 C286.44951252 66.15464556 289.47881719 63.71799424 292.0625 60.4375 C292.701875 59.633125 293.34125 58.82875 294 58 C294.66 58 295.32 58 296 58 C296.25265625 57.47019531 296.5053125 56.94039062 296.765625 56.39453125 C298.30233241 53.41351339 300.03473603 50.56954236 301.75 47.6875 C310.63920831 32.21564817 314.23462764 17.83170054 314 0 C319.26927739 0.47808039 323.02083027 3.27733105 327.3125 6.125 C328.45416626 6.87813477 328.45416626 6.87813477 329.61889648 7.64648438 C342.65973325 16.35812772 354.16407157 27.8747415 357.609375 43.8203125 C359.67835051 60.66177318 356.90400916 73.99778016 347 88 C346.34 88.99 345.68 89.98 345 91 C344.34 91 343.68 91 343 91 C342.62875 91.86625 342.62875 91.86625 342.25 92.75 C340.81700012 95.32939979 339.21575324 97.06121592 337 99 C336.34 99 335.68 99 335 99 C335 99.66 335 100.32 335 101 C334.34 101 333.68 101 333 101 C333 101.66 333 102.32 333 103 C330.9375 104.55859375 330.9375 104.55859375 328 106.4375 C326.89914062 107.15421875 325.79828125 107.8709375 324.6640625 108.609375 C324.06754883 108.99673828 323.47103516 109.38410156 322.85644531 109.78320312 C319.66608427 111.87430773 316.51905981 114.02761345 313.375 116.1875 C312.70887695 116.64479492 312.04275391 117.10208984 311.35644531 117.57324219 C306.09839225 121.20196941 300.91800903 124.93201481 295.75 128.6875 C276.03289764 143 276.03289764 143 273 143 C273 143.66 273 144.32 273 145 C271.015625 146.41015625 271.015625 146.41015625 268.25 148.0625 C264.23638773 150.54373438 260.42576393 153.12148236 256.6875 156 C250.04310641 161.06775782 243.13496191 165.72131317 236.21777344 170.40673828 C230.91334682 174.00364988 225.63890034 177.63056193 220.4375 181.375 C219.89504639 181.76486084 219.35259277 182.15472168 218.79370117 182.55639648 C218.26365479 182.93739502 217.7336084 183.31839355 217.1875 183.7109375 C213.78180474 186.15669414 210.3688542 188.59040952 206.9375 191 C205.91527344 191.721875 204.89304687 192.44375 203.83984375 193.1875 C201.2640183 194.83149313 198.87300199 195.98785985 196 197 C196 197.66 196 198.32 196 199 C193.98046875 200.4453125 193.98046875 200.4453125 191.1875 202.125 C187.24567707 204.56350015 183.4249174 207.07061491 179.6875 209.8125 C178.78902344 210.46734375 177.89054688 211.1221875 176.96484375 211.796875 C174.76773932 213.42950596 172.60108864 215.08503726 170.44140625 216.765625 C169.21112603 217.69816544 167.98065944 218.63046007 166.75 219.5625 C165.9005481 220.24372925 165.9005481 220.24372925 165.03393555 220.9387207 C162.14969266 223.09633118 160.25297814 223.98736578 156.63671875 224.16796875 C151.69087155 222.57956025 148.14639727 219.89994271 144.0625 216.75 C142.53441624 215.59648469 141.00448159 214.44541697 139.47265625 213.296875 C138.73418457 212.73935547 137.99571289 212.18183594 137.23486328 211.60742188 C134.40306865 209.57065808 131.45381351 207.78980423 128.43139648 206.05175781 C127.95903564 205.70467773 127.4866748 205.35759766 127 205 C127 204.34 127 203.68 127 203 C125.89591797 202.59587891 125.89591797 202.59587891 124.76953125 202.18359375 C122.0878702 201.03755243 120.03994136 199.77146717 117.6875 198.0625 C113.18425867 194.83629726 108.6366889 191.6866114 104.0625 188.5625 C98.43827983 184.71289646 92.90158646 180.76716973 87.41796875 176.71875 C85.103691 175.07370604 82.74600011 173.58594946 80.3125 172.125 C79.219375 171.42375 78.12625 170.7225 77 170 C77 169.34 77 168.68 77 168 C76.27385498 167.73646729 75.54770996 167.47293457 74.79956055 167.20141602 C71.96243547 165.98387939 69.71693378 164.56694956 67.20703125 162.77734375 C66.32982422 162.15666016 65.45261719 161.53597656 64.54882812 160.89648438 C63.64583984 160.25001953 62.74285156 159.60355469 61.8125 158.9375 C60.00727628 157.65387017 58.20132288 156.37126571 56.39453125 155.08984375 C55.59893799 154.52128662 54.80334473 153.95272949 53.98364258 153.36694336 C52.05224354 151.96808996 52.05224354 151.96808996 50 151 C50 150.34 50 149.68 50 149 C49.33097656 148.77570313 48.66195312 148.55140625 47.97265625 148.3203125 C44.11582653 146.60729221 40.87432295 144.30503115 37.4375 141.875 C36.02018771 140.88317585 34.60221175 139.89229944 33.18359375 138.90234375 C32.48218262 138.41233887 31.78077148 137.92233398 31.05810547 137.41748047 C27.120482 134.70551821 23.0899728 132.13467675 19.0625 129.55859375 C18.381875 129.04425781 17.70125 128.52992188 17 128 C17 127.34 17 126.68 17 126 C16.28013916 125.73968994 15.56027832 125.47937988 14.81860352 125.21118164 C11.88250992 123.94951336 9.51844785 122.45190151 6.90234375 120.62109375 C5.46109131 119.6168335 5.46109131 119.6168335 3.99072266 118.59228516 C2.98315918 117.88120605 1.9755957 117.17012695 0.9375 116.4375 C-0.09584473 115.71095215 -1.12918945 114.9844043 -2.19384766 114.23583984 C-5.13351546 112.16320499 -8.06690059 110.08191301 -11 108 C-11.69303223 107.51450684 -12.38606445 107.02901367 -13.10009766 106.52880859 C-20.28190712 101.4949787 -26.71209341 96.06389542 -32 89 C-32 88.34 -32 87.68 -32 87 C-32.66 87 -33.32 87 -34 87 C-41.67485766 72.78574307 -46.61692406 59.07540093 -42.875 42.73046875 C-38.73117114 29.79950278 -30.96508405 19.02323223 -20 11 C-19.34 11 -18.68 11 -18 11 C-18 10.34 -18 9.68 -18 9 C-16.11012684 7.75766478 -14.1608747 6.60490256 -12.1875 5.5 C-2.43432203 0 -2.43432203 0 0 0 Z " fill="#517F4A" transform="translate(103,170)"/>
<path d="M0 0 C0.57621094 0.23460938 1.15242187 0.46921875 1.74609375 0.7109375 C1.08609375 0.7109375 0.42609375 0.7109375 -0.25390625 0.7109375 C0.07609375 96.7409375 0.40609375 192.7709375 0.74609375 291.7109375 C2.06609375 291.0509375 3.38609375 290.3909375 4.74609375 289.7109375 C5.07609375 290.3709375 5.40609375 291.0309375 5.74609375 291.7109375 C5.08609375 291.7109375 4.42609375 291.7109375 3.74609375 291.7109375 C3.74609375 292.3709375 3.74609375 293.0309375 3.74609375 293.7109375 C1.6015625 294.4296875 1.6015625 294.4296875 -1.25390625 294.7109375 C-4.015625 293.3046875 -4.015625 293.3046875 -6.94140625 291.2109375 C-7.99972656 290.46585937 -9.05804688 289.72078125 -10.1484375 288.953125 C-11.17324219 288.21320313 -12.19804687 287.47328125 -13.25390625 286.7109375 C-14.87790545 285.58449327 -16.50284264 284.45939963 -18.12890625 283.3359375 C-25.68397145 278.01359924 -33.19590896 272.62938758 -40.69921875 267.234375 C-47.50020456 262.35089474 -54.35573113 257.55850864 -61.26831055 252.83422852 C-66.44896004 249.28605447 -71.56840669 245.65877147 -76.65039062 241.97070312 C-79.09901701 240.2030732 -81.52510473 238.55575781 -84.1484375 237.0546875 C-84.84324219 236.61125 -85.53804687 236.1678125 -86.25390625 235.7109375 C-86.25390625 235.0509375 -86.25390625 234.3909375 -86.25390625 233.7109375 C-86.91261719 233.49566406 -87.57132813 233.28039062 -88.25 233.05859375 C-92.31101452 231.23668217 -95.71493899 228.74435772 -99.31640625 226.1484375 C-100.0635791 225.61557129 -100.81075195 225.08270508 -101.58056641 224.53369141 C-107.09296776 220.58748765 -112.53747409 216.5565809 -117.93359375 212.453125 C-119.66745031 211.1512731 -121.44985755 209.91363664 -123.25390625 208.7109375 C-123.25390625 208.0509375 -123.25390625 207.3909375 -123.25390625 206.7109375 C-123.91390625 206.7109375 -124.57390625 206.7109375 -125.25390625 206.7109375 C-125.25390625 206.0509375 -125.25390625 205.3909375 -125.25390625 204.7109375 C-125.91390625 204.7109375 -126.57390625 204.7109375 -127.25390625 204.7109375 C-129.10749008 202.52116445 -130.81811894 200.33813264 -132.50390625 198.0234375 C-132.99753662 197.34732422 -133.49116699 196.67121094 -133.99975586 195.97460938 C-145.85835561 179.29729559 -147.99833566 162.82704143 -146.25390625 142.7109375 C-143.65926074 128.05236619 -134.96951521 114.80354594 -124.25390625 104.7109375 C-122.76890625 104.2159375 -122.76890625 104.2159375 -121.25390625 103.7109375 C-121.25390625 103.0509375 -121.25390625 102.3909375 -121.25390625 101.7109375 C-119.68103941 100.29655344 -118.04250629 98.95489349 -116.37890625 97.6484375 C-112.46267528 94.51847684 -108.65190322 91.3325763 -104.94140625 87.9609375 C-94.75182657 78.7109375 -94.75182657 78.7109375 -92.25390625 78.7109375 C-92.25390625 78.0509375 -92.25390625 77.3909375 -92.25390625 76.7109375 C-90.6195787 75.23324532 -88.91914257 73.82824431 -87.19140625 72.4609375 C-83.79469993 69.7514514 -80.44076977 67.03293605 -77.19140625 64.1484375 C-74.25390625 61.7109375 -74.25390625 61.7109375 -72.25390625 61.7109375 C-72.25390625 61.0509375 -72.25390625 60.3909375 -72.25390625 59.7109375 C-70.68103941 58.29655344 -69.04250629 56.95489349 -67.37890625 55.6484375 C-63.46267528 52.51847684 -59.65190322 49.3325763 -55.94140625 45.9609375 C-45.75182657 36.7109375 -45.75182657 36.7109375 -43.25390625 36.7109375 C-43.25390625 36.0509375 -43.25390625 35.3909375 -43.25390625 34.7109375 C-41.68103941 33.29655344 -40.04250629 31.95489349 -38.37890625 30.6484375 C-34.56555063 27.60067885 -30.85581816 24.50593409 -27.25390625 21.2109375 C-22.94216282 17.28185276 -18.48113835 13.58580025 -13.93359375 9.93359375 C-10.54780352 7.12526337 -7.3743376 4.11816211 -4.2265625 1.046875 C-2.25390625 -0.2890625 -2.25390625 -0.2890625 0 0 Z " fill="#5F9050" transform="translate(260.25390625,21.2890625)"/>
<path d="M0 0 C4.30902691 0.54152941 6.76064979 2.00297871 10.1875 4.625 C11.64349609 5.71941406 11.64349609 5.71941406 13.12890625 6.8359375 C14.07636719 7.55007813 15.02382812 8.26421875 16 9 C17.53551477 10.09203554 19.07703486 11.17568573 20.625 12.25 C24.29142409 14.80330003 27.94524636 17.37339671 31.59204102 19.95458984 C39.2637307 25.38367561 46.96705915 30.76546946 54.6875 36.125 C60.96520204 40.48298116 67.23281201 44.85105988 73.4375 49.3125 C78.15121486 52.69978111 82.90283271 56.02615663 87.6875 59.3125 C88.3364624 59.75883789 88.9854248 60.20517578 89.65405273 60.66503906 C93.50064794 63.30435641 97.3635098 65.91783914 101.23828125 68.515625 C102.11331299 69.10561279 102.98834473 69.69560059 103.88989258 70.3034668 C105.60853244 71.46171207 107.33094854 72.61437676 109.05737305 73.76098633 C109.83250244 74.2845874 110.60763184 74.80818848 111.40625 75.34765625 C112.10041016 75.81179932 112.79457031 76.27594238 113.50976562 76.75415039 C114.00154297 77.16528076 114.49332031 77.57641113 115 78 C115 78.66 115 79.32 115 80 C115.66902344 80.22429687 116.33804688 80.44859375 117.02734375 80.6796875 C120.88417347 82.39270779 124.12567705 84.69496885 127.5625 87.125 C128.97981229 88.11682415 130.39778825 89.10770056 131.81640625 90.09765625 C132.86852295 90.83266357 132.86852295 90.83266357 133.94189453 91.58251953 C137.879518 94.29448179 141.9100272 96.86532325 145.9375 99.44140625 C146.9584375 100.21291016 146.9584375 100.21291016 148 101 C148 101.66 148 102.32 148 103 C148.69996094 103.24234375 149.39992187 103.4846875 150.12109375 103.734375 C153.47403346 105.20839463 156.10811538 107.08177605 159.0625 109.25 C160.29102451 110.14151058 161.52023469 111.03207679 162.75 111.921875 C163.75546875 112.65180664 163.75546875 112.65180664 164.78125 113.39648438 C169.02085482 116.46049455 173.28896678 119.48357152 177.5625 122.5 C178.4191626 123.11133789 179.2758252 123.72267578 180.15844727 124.35253906 C180.97369873 124.92713867 181.7889502 125.50173828 182.62890625 126.09375 C183.35150635 126.60615234 184.07410645 127.11855469 184.81860352 127.64648438 C187.14016031 129.08696684 189.44567984 130.04329003 192 131 C192.66 131.33 193.32 131.66 194 132 C193.01 132.66 192.02 133.32 191 134 C190.55941844 136.99157251 190.55941844 136.99157251 190.65942383 140.56103516 C190.65898575 141.23432358 190.65854767 141.907612 190.65809631 142.6013031 C190.66018944 144.83084938 190.6835438 147.05964731 190.70703125 149.2890625 C190.71262537 150.83319691 190.71689634 152.37733664 190.71989441 153.92147827 C190.73135774 157.98883727 190.76083738 162.05587571 190.79400635 166.12310791 C190.82467538 170.27213199 190.83839294 174.42120778 190.85351562 178.5703125 C190.88570595 186.7136889 190.93691992 194.85680459 191 203 C190.01 203.33 189.02 203.66 188 204 C186.0456543 202.98706055 186.0456543 202.98706055 183.82421875 201.38671875 C183.0036499 200.8033374 182.18308105 200.21995605 181.33764648 199.61889648 C180.46309814 198.98153564 179.5885498 198.3441748 178.6875 197.6875 C177.78394775 197.04176025 176.88039551 196.39602051 175.94946289 195.73071289 C173.29279384 193.82978577 170.64557075 191.91632963 168 190 C165.64828762 188.30906144 163.29312663 186.62297924 160.9375 184.9375 C160.39480469 184.54763916 159.85210937 184.15777832 159.29296875 183.75610352 C154.47401653 180.30610828 149.5849898 176.96223624 144.6875 173.625 C133.35101488 165.90011837 122.15841077 157.9792077 111 150 C105.85991832 146.32523403 100.71732468 142.65406763 95.5625 139 C94.85681885 138.49936035 94.1511377 137.9987207 93.42407227 137.48291016 C89.84738187 134.95939046 86.24736842 132.48514256 82.5859375 130.0859375 C81.53877563 129.39951172 81.53877563 129.39951172 80.47045898 128.69921875 C79.14093949 127.83320293 77.80725278 126.97354276 76.46899414 126.12109375 C74.94541089 125.13106673 73.46706222 124.0720018 72 123 C72 122.34 72 121.68 72 121 C71.33226562 120.77957031 70.66453125 120.55914062 69.9765625 120.33203125 C66.06557774 118.58183991 62.83151733 116.19936412 59.375 113.6875 C57.85776401 112.59887488 56.33949563 111.51168748 54.8203125 110.42578125 C54.03172852 109.86197754 53.24314453 109.29817383 52.43066406 108.71728516 C48.41075936 105.87718776 44.32670908 103.13259283 40.25 100.375 C32.60361456 95.18364133 25.2567542 89.72145917 18 84 C17.22527344 83.45601563 16.45054688 82.91203125 15.65234375 82.3515625 C14.83443359 81.68253906 14.83443359 81.68253906 14 81 C14 80.34 14 79.68 14 79 C13.34 79 12.68 79 12 79 C12 78.34 12 77.68 12 77 C11.34 77 10.68 77 10 77 C10 76.34 10 75.68 10 75 C9.34 75 8.68 75 8 75 C6.29371929 72.93132339 4.72853365 70.87511923 3.1875 68.6875 C2.73753662 68.0495752 2.28757324 67.41165039 1.82397461 66.75439453 C-7.10946229 53.8018013 -11.76457376 39.39768965 -9.68359375 23.59765625 C-8.03017396 15.12201787 -4.46653918 7.33788579 0 0 Z " fill="#215632" transform="translate(69,275)"/>
<path d="M0 0 C5.26927739 0.47808039 9.02083027 3.27733105 13.3125 6.125 C14.45416626 6.87813477 14.45416626 6.87813477 15.61889648 7.64648438 C28.65973325 16.35812772 40.16407157 27.8747415 43.609375 43.8203125 C45.67835051 60.66177318 42.90400916 73.99778016 33 88 C32.34 88.99 31.68 89.98 31 91 C30.34 91 29.68 91 29 91 C28.62875 91.86625 28.62875 91.86625 28.25 92.75 C26.81700012 95.32939979 25.21575324 97.06121592 23 99 C22.34 99 21.68 99 21 99 C21 99.66 21 100.32 21 101 C20.34 101 19.68 101 19 101 C19 101.66 19 102.32 19 103 C16.9375 104.55859375 16.9375 104.55859375 14 106.4375 C12.34871094 107.51257813 12.34871094 107.51257813 10.6640625 108.609375 C10.06754883 108.99673828 9.47103516 109.38410156 8.85644531 109.78320312 C5.66608427 111.87430773 2.51905981 114.02761345 -0.625 116.1875 C-1.29112305 116.64479492 -1.95724609 117.10208984 -2.64355469 117.57324219 C-7.90160775 121.20196941 -13.08199097 124.93201481 -18.25 128.6875 C-37.96710236 143 -37.96710236 143 -41 143 C-41 143.66 -41 144.32 -41 145 C-42.984375 146.41015625 -42.984375 146.41015625 -45.75 148.0625 C-49.76361227 150.54373438 -53.57423607 153.12148236 -57.3125 156 C-63.95689359 161.06775782 -70.86503809 165.72131317 -77.78222656 170.40673828 C-83.08665318 174.00364988 -88.36109966 177.63056193 -93.5625 181.375 C-94.10495361 181.76486084 -94.64740723 182.15472168 -95.20629883 182.55639648 C-95.73634521 182.93739502 -96.2663916 183.31839355 -96.8125 183.7109375 C-100.21819526 186.15669414 -103.6311458 188.59040952 -107.0625 191 C-108.08472656 191.721875 -109.10695313 192.44375 -110.16015625 193.1875 C-112.7359817 194.83149313 -115.12699801 195.98785985 -118 197 C-118 197.66 -118 198.32 -118 199 C-120.01953125 200.4453125 -120.01953125 200.4453125 -122.8125 202.125 C-126.81814156 204.60224055 -130.69862546 207.1564078 -134.5 209.9375 C-135.40105469 210.59621094 -136.30210937 211.25492188 -137.23046875 211.93359375 C-139.14535428 213.36233062 -141.04287602 214.81452933 -142.92578125 216.28515625 C-143.87839844 217.01605469 -144.83101563 217.74695313 -145.8125 218.5 C-147.09060547 219.50546875 -147.09060547 219.50546875 -148.39453125 220.53125 C-151 222 -151 222 -157 222 C-157 201.87 -157 181.74 -157 161 C-155.02 160.01 -155.02 160.01 -153 159 C-152.505 158.01 -152.505 158.01 -152 157 C-150.865625 156.54625 -149.73125 156.0925 -148.5625 155.625 C-144.70315425 153.86459667 -144.64236799 153.51935998 -143 150 C-140.5625 149.3125 -140.5625 149.3125 -138 149 C-137.01 148.67 -136.02 148.34 -135 148 C-134.32558869 146.3364521 -133.6599679 144.66933058 -133 143 C-131 140.6875 -131 140.6875 -129 139 C-128.34 139 -127.68 139 -127 139 C-127 138.34 -127 137.68 -127 137 C-124.90534949 135.47689867 -122.80859078 134.07356517 -120.625 132.6875 C-114.58505093 128.76364701 -108.69527882 124.68023894 -102.875 120.4375 C-96.6715544 115.92220947 -90.42485922 111.49472333 -84.1015625 107.1484375 C-80.91892359 104.94383876 -77.76858778 102.69712718 -74.625 100.4375 C-68.12618391 95.77180477 -61.56710624 91.19393712 -55 86.625 C-54.00822754 85.93462646 -53.01645508 85.24425293 -51.99462891 84.53295898 C-49.33313998 82.68368384 -46.66722435 80.84098805 -44 79 C-43.35675781 78.54979492 -42.71351563 78.09958984 -42.05078125 77.63574219 C-38.22791374 75 -38.22791374 75 -36 75 C-36 74.34 -36 73.68 -36 73 C-34.31824617 71.52736092 -32.57788753 70.12126535 -30.8125 68.75 C-27.55048748 66.15464556 -24.52118281 63.71799424 -21.9375 60.4375 C-20.9784375 59.2309375 -20.9784375 59.2309375 -20 58 C-19.34 58 -18.68 58 -18 58 C-17.74734375 57.47019531 -17.4946875 56.94039062 -17.234375 56.39453125 C-15.69766759 53.41351339 -13.96526397 50.56954236 -12.25 47.6875 C-3.36079169 32.21564817 0.23462764 17.83170054 0 0 Z " fill="#3F6F3F" transform="translate(417,170)"/>
<path d="M0 0 C0.33 0 0.66 0 1 0 C1.57042254 10.88028169 1.57042254 10.88028169 -2 15 C-2.66 15 -3.32 15 -4 15 C-3.94199219 15.73992187 -3.88398438 16.47984375 -3.82421875 17.2421875 C-4.03096102 20.48574394 -4.79775275 21.62494867 -6.8125 24.125 C-7.33457031 24.78757813 -7.85664063 25.45015625 -8.39453125 26.1328125 C-9.86363799 27.84140866 -11.38970541 29.42568965 -13 31 C-15.98582629 34.34412545 -16.92079885 37.68319541 -18 42 C-20.31 41.67 -22.62 41.34 -25 41 C-24.59007812 40.52949219 -24.18015625 40.05898437 -23.7578125 39.57421875 C-23.21898437 38.95160156 -22.68015625 38.32898438 -22.125 37.6875 C-21.32449219 36.76517578 -21.32449219 36.76517578 -20.5078125 35.82421875 C-18.8359553 33.86501788 -18.8359553 33.86501788 -17 31 C-16.34 31 -15.68 31 -15 31 C-14.74863281 30.47277344 -14.49726563 29.94554687 -14.23828125 29.40234375 C-12.99273504 26.98590551 -11.62338856 24.66345022 -10.23242188 22.32861328 C-5.9640352 15.11424197 -2.74425127 7.94249647 0 0 Z " fill="#6A896A" transform="translate(414,197)"/>
<path d="M0 0 C0.66 0 1.32 0 2 0 C2 0.66 2 1.32 2 2 C2.99 2.33 3.98 2.66 5 3 C5.639375 3.804375 6.27875 4.60875 6.9375 5.4375 C8.73441919 8.05409285 8.73441919 8.05409285 11 8.9375 C14.00745028 10.53520796 15.19826355 13.17727956 17 16 C17.66 16.33 18.32 16.66 19 17 C19.33 17.99 19.66 18.98 20 20 C20.66 19.67 21.32 19.34 22 19 C22.99 19 23.98 19 25 19 C27 22.75 27 22.75 27 25 C28.65 25.66 30.3 26.32 32 27 C32 27.99 32 28.98 32 30 C28.51164121 28.41213857 25.57981181 26.33428426 22.5 24.0625 C21.09234375 23.02802734 21.09234375 23.02802734 19.65625 21.97265625 C18.7796875 21.32167969 17.903125 20.67070312 17 20 C16.2265625 19.46246094 15.453125 18.92492187 14.65625 18.37109375 C14.1096875 17.91863281 13.563125 17.46617187 13 17 C13 16.34 13 15.68 13 15 C12.34 15 11.68 15 11 15 C11 14.34 11 13.68 11 13 C10.34 13 9.68 13 9 13 C9 12.34 9 11.68 9 11 C8.34 11 7.68 11 7 11 C5.2734375 8.84765625 5.2734375 8.84765625 3.375 6.0625 C2.74335937 5.14597656 2.11171875 4.22945313 1.4609375 3.28515625 C0 1 0 1 0 0 Z " fill="#5C7963" transform="translate(70,339)"/>
<path d="M0 0 C1.65 1.65 3.3 3.3 5 5 C4.34 6.32 3.68 7.64 3 9 C1.35 9 -0.3 9 -2 9 C-2.66 12.3 -3.32 15.6 -4 19 C-4.66 19 -5.32 19 -6 19 C-6 20.32 -6 21.64 -6 23 C-6.66 23 -7.32 23 -8 23 C-7.9278125 24.09957031 -7.855625 25.19914062 -7.78125 26.33203125 C-7.25836933 34.56483868 -6.83954979 42.74572826 -7 51 C-11.18626512 46.81373488 -9.49323218 38.36952241 -9.51293945 32.74365234 C-9.32719591 20.47484549 -6.58333242 10.39889746 0 0 Z " fill="#839F76" transform="translate(123,142)"/>
<path d="M0 0 C0.33 0.66 0.66 1.32 1 2 C0.34 2.66 -0.32 3.32 -1 4 C-1.45375 4.474375 -1.9075 4.94875 -2.375 5.4375 C-7.12 10 -7.12 10 -10 10 C-10.33 10.99 -10.66 11.98 -11 13 C-12.32 12.67 -13.64 12.34 -15 12 C-15.268125 12.598125 -15.53625 13.19625 -15.8125 13.8125 C-16.99917406 15.99847854 -18.09599113 17.41332594 -20 19 C-20.66 19 -21.32 19 -22 19 C-22 19.66 -22 20.32 -22 21 C-23.65 20.67 -25.3 20.34 -27 20 C-26.34 19.67 -25.68 19.34 -25 19 C-25 18.34 -25 17.68 -25 17 C-22.73884545 15.35086461 -20.47887671 13.8188688 -18.125 12.3125 C-16.75068974 11.4163029 -15.37699391 10.51916291 -14.00390625 9.62109375 C-13.32473145 9.17878418 -12.64555664 8.73647461 -11.94580078 8.28076172 C-7.89784165 5.61632086 -3.94994864 2.80678704 0 0 Z " fill="#628061" transform="translate(315,290)"/>
<path d="M0 0 C0.66 0.33 1.32 0.66 2 1 C1.67 1.66 1.34 2.32 1 3 C0.34 3 -0.32 3 -1 3 C-1.33 4.32 -1.66 5.64 -2 7 C-2.99 7 -3.98 7 -5 7 C-5.61875 8.11375 -6.2375 9.2275 -6.875 10.375 C-8.58002541 13.44404573 -9.81022255 15.57035814 -13.25 16.8125 C-16.79848988 18.34480245 -19.1079235 20.44421147 -22 23 C-22.66 22.34 -23.32 21.68 -24 21 C-16.06246942 13.92604335 -8.08457323 6.90557297 0 0 Z " fill="#739667" transform="translate(166,100)"/>
<path d="M0 0 C4.06225548 0.57823096 6.84762346 1.89117737 10.3125 4.0625 C11.19550781 4.61035156 12.07851563 5.15820312 12.98828125 5.72265625 C13.65214844 6.14417969 14.31601562 6.56570312 15 7 C13.68 8.32 12.36 9.64 11 11 C10.34 10.67 9.68 10.34 9 10 C9 8.68 9 7.36 9 6 C6.37098712 7.52206009 4.15634036 8.84365964 2 11 C2 10.34 2 9.68 2 9 C1.34 9 0.68 9 0 9 C0 6.03 0 3.06 0 0 Z " fill="#607D5E" transform="translate(417,170)"/>
<path d="M0 0 C-0.54611863 3.82283043 -2.23818615 5.41079952 -5 8 C-5.33 8.66 -5.66 9.32 -6 10 C-6.99 10 -7.98 10 -9 10 C-9 10.66 -9 11.32 -9 12 C-12.58045212 14.74778884 -15.4923533 16.46968862 -20 17 C-18.33333333 15.33333333 -16.66666667 13.66666667 -15 12 C-14.278125 11.236875 -13.55625 10.47375 -12.8125 9.6875 C-11 8 -11 8 -9 8 C-9 7.34 -9 6.68 -9 6 C-7.5390625 4.4921875 -7.5390625 4.4921875 -5.625 2.875 C-4.68527344 2.06675781 -4.68527344 2.06675781 -3.7265625 1.2421875 C-2 0 -2 0 0 0 Z " fill="#7E9C70" transform="translate(197,75)"/>
<path d="M0 0 C0.65355469 0.56267578 0.65355469 0.56267578 1.3203125 1.13671875 C5.18607599 4.45859777 9.07657648 7.74642927 13 11 C12.34 12.32 11.68 13.64 11 15 C10.608125 14.54625 10.21625 14.0925 9.8125 13.625 C7.69167513 11.72357081 5.66957765 10.93795972 3 10 C3 8.68 3 7.36 3 6 C0.525 5.01 0.525 5.01 -2 4 C-1.34 2.68 -0.68 1.36 0 0 Z " fill="#537E51" transform="translate(350,97)"/>
<path d="M0 0 C3.3 0 6.6 0 10 0 C10.3403125 1.11375 10.3403125 1.11375 10.6875 2.25 C12.24407532 5.51139591 14.08518854 6.92894975 17 9 C16.01 10.485 16.01 10.485 15 12 C14.38125 11.484375 13.7625 10.96875 13.125 10.4375 C9.52270672 7.62771124 5.78554787 5.06109614 2.01171875 2.48828125 C1.34785156 1.99714844 0.68398437 1.50601562 0 1 C0 0.67 0 0.34 0 0 Z " fill="#416A4E" transform="translate(220,452)"/>
<path d="M0 0 C1.98 0 3.96 0 6 0 C3.59174117 2.58196931 0.95663254 4.54748742 -1.9375 6.5625 C-2.79214844 7.16191406 -3.64679688 7.76132812 -4.52734375 8.37890625 C-6.64135923 9.76487217 -8.71287742 10.93338367 -11 12 C-10.67 10.68 -10.34 9.36 -10 8 C-9.34 8 -8.68 8 -8 8 C-8 7.34 -8 6.68 -8 6 C-8.66 5.67 -9.32 5.34 -10 5 C-9.01 4.01 -8.02 3.02 -7 2 C-7.66 1.67 -8.32 1.34 -9 1 C-7.35 1.33 -5.7 1.66 -4 2 C-4 2.66 -4 3.32 -4 4 C-2.68 3.67 -1.36 3.34 0 3 C0 2.01 0 1.02 0 0 Z " fill="#305638" transform="translate(346,416)"/>
<path d="M0 0 C1.32 0 2.64 0 4 0 C4 1.32 4 2.64 4 4 C7.62885324 4.15149298 7.62885324 4.15149298 11 3 C11.66 4.32 12.32 5.64 13 7 C13.33 6.34 13.66 5.68 14 5 C14.99 5.33 15.98 5.66 17 6 C16.01 6.495 16.01 6.495 15 7 C15 7.66 15 8.32 15 9 C12.89453125 9.74609375 12.89453125 9.74609375 10 10 C6.88671875 8.34765625 6.88671875 8.34765625 3.6875 6.0625 C2.61886719 5.31097656 1.55023438 4.55945313 0.44921875 3.78515625 C-0.35902344 3.19605469 -1.16726562 2.60695313 -2 2 C-1.34 1.34 -0.68 0.68 0 0 Z " fill="#799A71" transform="translate(249,306)"/>
<path d="M0 0 C0.66 0 1.32 0 2 0 C1.99476318 0.59538574 1.98952637 1.19077148 1.98413086 1.80419922 C1.96338001 4.49445547 1.95034593 7.18469489 1.9375 9.875 C1.92912109 10.81214844 1.92074219 11.74929688 1.91210938 12.71484375 C1.90888672 13.61074219 1.90566406 14.50664062 1.90234375 15.4296875 C1.89448853 16.67081299 1.89448853 16.67081299 1.88647461 17.93701172 C1.86647862 20.06411757 1.86647862 20.06411757 3 22 C2.0625 24.125 2.0625 24.125 1 26 C-1.30790085 17.34537181 -2.00796064 8.80289945 0 0 Z " fill="#3C654B" transform="translate(60,296)"/>
<path d="M0 0 C1.32 0.66 2.64 1.32 4 2 C1.90421865 3.5337173 -0.20022537 5.05180837 -2.3125 6.5625 C-2.90740234 7.00013672 -3.50230469 7.43777344 -4.11523438 7.88867188 C-5.68970073 9.00575136 -7.34206919 10.01102259 -9 11 C-9.99 10.67 -10.98 10.34 -12 10 C-11.4375 8.1875 -11.4375 8.1875 -10 6 C-7.68895182 4.94952356 -5.35416349 3.94992562 -3 3 C-1.11970761 1.46048953 -1.11970761 1.46048953 0 0 Z " fill="#5F855E" transform="translate(332,262)"/>
<path d="M0 0 C2.3125 0.1875 2.3125 0.1875 4 1 C3.34 1 2.68 1 2 1 C2 3.64 2 6.28 2 9 C0.35 9.33 -1.3 9.66 -3 10 C-3.66 8.35 -4.32 6.7 -5 5 C-2.75 2.4375 -2.75 2.4375 0 0 Z " fill="#6B935F" transform="translate(258,21)"/>
<path d="M0 0 C0.33 0 0.66 0 1 0 C2.60881575 7.42640842 3.26442904 14.40501039 3 22 C2.34 21.67 1.68 21.34 1 21 C0.40234375 18.890625 0.40234375 18.890625 -0.0625 16.25 C-0.21847656 15.38890625 -0.37445313 14.5278125 -0.53515625 13.640625 C-0.68855469 12.76921875 -0.84195312 11.8978125 -1 11 C-1.20367187 10.13503906 -1.40734375 9.27007812 -1.6171875 8.37890625 C-2.13388158 5.1680216 -1.17816224 2.98005743 0 0 Z " fill="#6D8D67" transform="translate(404,159)"/>
<path d="M0 0 C0.66 0 1.32 0 2 0 C2 2 2 2 0.4375 3.9375 C-2.47861674 6.40498339 -5.50165135 7.50996261 -9 9 C-9.99 10.485 -9.99 10.485 -11 12 C-12.44197868 13.44197868 -14.17691571 14.11786244 -16 15 C-16 13.68 -16 12.36 -16 11 C-14.63891602 9.64379883 -14.63891602 9.64379883 -12.75390625 8.45703125 C-12.08166016 8.02326172 -11.40941406 7.58949219 -10.71679688 7.14257812 C-10.00587891 6.70365234 -9.29496094 6.26472656 -8.5625 5.8125 C-7.16763407 4.92370211 -5.77308612 4.03440491 -4.37890625 3.14453125 C-3.44413452 2.56215698 -3.44413452 2.56215698 -2.49047852 1.96801758 C-1.01177869 1.08106881 -1.01177869 1.08106881 0 0 Z " fill="#5B7560" transform="translate(281,392)"/>
<path d="M0 0 C-3.96 2.64 -7.92 5.28 -12 8 C-12.33 7.01 -12.66 6.02 -13 5 C-5.60714286 -2.80357143 -5.60714286 -2.80357143 0 0 Z " fill="#5E805E" transform="translate(294,372)"/>
<path d="M0 0 C0.66 0.33 1.32 0.66 2 1 C2 2.98 2 4.96 2 7 C1.236875 6.814375 0.47375 6.62875 -0.3125 6.4375 C-3.08967375 5.77180827 -3.08967375 5.77180827 -6 7 C-7.37195574 8.29355827 -8.71182656 9.62298702 -10 11 C-10.33 10.01 -10.66 9.02 -11 8 C-10.01 7.67 -9.02 7.34 -8 7 C-8 6.34 -8 5.68 -8 5 C-6.3203125 3.67578125 -6.3203125 3.67578125 -4.125 2.3125 C-3.40570313 1.85488281 -2.68640625 1.39726562 -1.9453125 0.92578125 C-0.98238281 0.46751953 -0.98238281 0.46751953 0 0 Z " fill="#688961" transform="translate(93,174)"/>
<path d="M0 0 C5.28499735 0.38670712 9.30040776 2.21887405 13 6 C13.69921875 8.16796875 13.69921875 8.16796875 14 10 C11.0280615 8.87548273 8.66559313 7.77706209 6 6 C6 5.34 6 4.68 6 4 C5.195625 3.71125 4.39125 3.4225 3.5625 3.125 C1 2 1 2 0 0 Z " fill="#789673" transform="translate(224,369)"/>
<path d="M0 0 C1.32 0.33 2.64 0.66 4 1 C4.061875 1.94875 4.12375 2.8975 4.1875 3.875 C4.455625 4.90625 4.72375 5.9375 5 7 C7.46255685 8.45291273 7.46255685 8.45291273 10 9 C10 9.99 10 10.98 10 12 C6.38365754 10.33091887 3.08932558 8.52763002 0 6 C-0.375 2.75 -0.375 2.75 0 0 Z " fill="#316345" transform="translate(92,357)"/>
<path d="M0 0 C0.66 0.33 1.32 0.66 2 1 C-0.0746146 5.04003897 -1.91038861 7.00506762 -6 9 C-7.33106622 9.34227417 -8.66400079 9.67751743 -10 10 C-10.66 10.66 -11.32 11.32 -12 12 C-12.66 11.34 -13.32 10.68 -14 10 C-13.32453125 9.52949219 -12.6490625 9.05898438 -11.953125 8.57421875 C-11.06109375 7.95160156 -10.1690625 7.32898438 -9.25 6.6875 C-8.36828125 6.07261719 -7.4865625 5.45773437 -6.578125 4.82421875 C-4.35567831 3.25166935 -2.16807006 1.64631488 0 0 Z " fill="#728C70" transform="translate(283,312)"/>
<path d="M0 0 C0.763125 0.20625 1.52625 0.4125 2.3125 0.625 C-0.71045271 3.88048753 -3.89212309 6.31477058 -7.6875 8.625 C-8.3475 8.625 -9.0075 8.625 -9.6875 8.625 C-10.0175 7.635 -10.3475 6.645 -10.6875 5.625 C-9.6975 5.625 -8.7075 5.625 -7.6875 5.625 C-7.419375 5.00625 -7.15125 4.3875 -6.875 3.75 C-5.09239606 0.56007716 -3.66326416 -0.51115314 0 0 Z " fill="#6A8B67" transform="translate(282.6875,298.375)"/>
<path d="M0 0 C0.66 0.99 1.32 1.98 2 3 C2.99 3.33 3.98 3.66 5 4 C5 4.66 5 5.32 5 6 C6.65 6 8.3 6 10 6 C10.93423645 9.01031744 11.04449911 9.86650268 10 13 C1.3690205 5.88610478 1.3690205 5.88610478 -1 1 C-0.67 0.67 -0.34 0.34 0 0 Z " fill="#73906F" transform="translate(74,259)"/>
<path d="M0 0 C1.65 1.65 3.3 3.3 5 5 C4.375 6.9375 4.375 6.9375 3 9 C-0.125 9.75 -0.125 9.75 -3 10 C-3.36629408 5.72656908 -2.40814077 3.51187196 0 0 Z " fill="#759966" transform="translate(123,142)"/>
<path d="M0 0 C0.66 0.33 1.32 0.66 2 1 C1.67 1.66 1.34 2.32 1 3 C1.66 3.33 2.32 3.66 3 4 C0.69 4.66 -1.62 5.32 -4 6 C-4 6.66 -4 7.32 -4 8 C-4.99 8 -5.98 8 -7 8 C-7.33 8.66 -7.66 9.32 -8 10 C-11.0625 10.625 -11.0625 10.625 -14 11 C-9.37951624 7.27380342 -4.69017194 3.63769327 0 0 Z " fill="#57745C" transform="translate(312,370)"/>
<path d="M0 0 C0 3.63 0 7.26 0 11 C-0.66 10.34 -1.32 9.68 -2 9 C-2 8.01 -2 7.02 -2 6 C-2.61875 5.87625 -3.2375 5.7525 -3.875 5.625 C-6 5 -6 5 -8 3 C-3.375 0 -3.375 0 0 0 Z " fill="#8CA284" transform="translate(103,170)"/>
<path d="M0 0 C1.79639296 1.09646058 3.58697154 2.20245148 5.375 3.3125 C6.37273437 3.92738281 7.37046875 4.54226563 8.3984375 5.17578125 C11 7 11 7 13 10 C12.34 10 11.68 10 11 10 C10.67 10.66 10.34 11.32 10 12 C9.814375 11.401875 9.62875 10.80375 9.4375 10.1875 C8.05294483 7.62817225 8.05294483 7.62817225 4.4375 6.5625 C3.303125 6.046875 2.16875 5.53125 1 5 C0.28515625 2.40234375 0.28515625 2.40234375 0 0 Z " fill="#7C9876" transform="translate(235,311)"/>
<path d="M0 0 C5.47458908 0.74653487 8.60108703 1.36793487 12.25 5.625 C12.8275 6.40875 13.405 7.1925 14 8 C13.67 8.66 13.34 9.32 13 10 C10.8304939 8.52485505 8.66436293 7.0451561 6.5 5.5625 C5.87996094 5.14162109 5.25992188 4.72074219 4.62109375 4.28710938 C3.06289602 3.21691863 1.52921949 2.11120482 0 1 C0 0.67 0 0.34 0 0 Z " fill="#799671" transform="translate(99,282)"/>
<path d="M0 0 C1.65 0.33 3.3 0.66 5 1 C4.360625 1.268125 3.72125 1.53625 3.0625 1.8125 C0.66868314 2.88667752 0.66868314 2.88667752 0 6 C0.66 6.33 1.32 6.66 2 7 C0.35 8.65 -1.3 10.3 -3 12 C-3.94721072 9.39517051 -4.30222393 7.69325299 -3.17578125 5.109375 C-2.17063275 3.37417127 -1.0893855 1.68359577 0 0 Z " fill="#4F7058" transform="translate(69,275)"/>
<path d="M0 0 C0.66 0.99 1.32 1.98 2 3 C1.34 3 0.68 3 0 3 C0 3.66 0 4.32 0 5 C-1.26418246 5.69965443 -2.53665402 6.38434763 -3.8125 7.0625 C-4.52019531 7.44535156 -5.22789062 7.82820313 -5.95703125 8.22265625 C-8 9 -8 9 -11 8 C-7.37 5.36 -3.74 2.72 0 0 Z " fill="#608160" transform="translate(342,271)"/>
<path d="M0 0 C6.70212766 1.93617021 6.70212766 1.93617021 9 5 C9 5.66 9 6.32 9 7 C9.99 6.67 10.98 6.34 12 6 C12.33 7.32 12.66 8.64 13 10 C8.03231242 8.44759763 3.82132943 5.48945219 0 2 C0 1.34 0 0.68 0 0 Z " fill="#5E7F69" transform="translate(160,409)"/>
<path d="M0 0 C0.66 0.33 1.32 0.66 2 1 C1.2884375 1.6496875 1.2884375 1.6496875 0.5625 2.3125 C-1.23686957 4.02309613 -1.23686957 4.02309613 -2 7 C-6.06277395 8.80567731 -7.58852494 9.10286876 -12 8 C-8.04 5.36 -4.08 2.72 0 0 Z " fill="#617C68" transform="translate(401,308)"/>
<path d="M0 0 C-3.12621626 3.39417765 -5.56541027 5.6062718 -10 7 C-9.75 4.125 -9.75 4.125 -9 1 C-5.94922127 -1.50599681 -3.65912416 -1.01642338 0 0 Z " fill="#6A8F65" transform="translate(354,250)"/>
<path d="M0 0 C3.16277272 1.58138636 3.43093689 4.32596051 4.625 7.5625 C5.29402344 9.35880859 5.29402344 9.35880859 5.9765625 11.19140625 C6.31429687 12.11824219 6.65203125 13.04507813 7 14 C6.34 14 5.68 14 5 14 C4.731875 13.360625 4.46375 12.72125 4.1875 12.0625 C3.11332248 9.66868314 3.11332248 9.66868314 0 9 C0.33 8.34 0.66 7.68 1 7 C0.67 6.175 0.34 5.35 0 4.5 C-0.33 3.675 -0.66 2.85 -1 2 C-0.67 1.34 -0.34 0.68 0 0 Z " fill="#7A9675" transform="translate(107,203)"/>
<path d="M0 0 C0.33 0.66 0.66 1.32 1 2 C0.34 2.66 -0.32 3.32 -1 4 C-1.6496875 4.7115625 -1.6496875 4.7115625 -2.3125 5.4375 C-4.35982285 7.3331693 -6.57960395 8.6262617 -9 10 C-9.66 9.34 -10.32 8.68 -11 8 C-7.37 5.36 -3.74 2.72 0 0 Z " fill="#698B69" transform="translate(315,290)"/>
<path d="M0 0 C1.79639296 1.09646058 3.58697154 2.20245148 5.375 3.3125 C6.37273437 3.92738281 7.37046875 4.54226563 8.3984375 5.17578125 C11 7 11 7 13 10 C12.01 10 11.02 10 10 10 C10 9.34 10 8.68 10 8 C9.484375 7.9175 8.96875 7.835 8.4375 7.75 C4.95544268 6.67859775 2.12799115 4.86476395 -1 3 C-0.67 2.01 -0.34 1.02 0 0 Z " fill="#73926E" transform="translate(179,272)"/>
<path d="M0 0 C0.33 0 0.66 0 1 0 C1 5.61 1 11.22 1 17 C0.34 17 -0.32 17 -1 17 C-0.97679687 16.22914063 -0.95359375 15.45828125 -0.9296875 14.6640625 C-0.91164063 13.66117188 -0.89359375 12.65828125 -0.875 11.625 C-0.85179687 10.62726563 -0.82859375 9.62953125 -0.8046875 8.6015625 C-0.72783152 5.83737827 -0.72783152 5.83737827 -3 4 C-2.01 3.67 -1.02 3.34 0 3 C0 2.01 0 1.02 0 0 Z " fill="#607D5D" transform="translate(460,217)"/>
<path d="M0 0 C1.1055189 0.93590504 2.20935453 1.87379858 3.3125 2.8125 C3.92738281 3.33457031 4.54226563 3.85664062 5.17578125 4.39453125 C6.85424679 5.87172469 8.43882034 7.40039131 10 9 C5.89040961 8.54337885 3.68322896 8.19432019 1 5 C0.01 4.34 -0.98 3.68 -2 3 C-1.34 2.01 -0.68 1.02 0 0 Z " fill="#749273" transform="translate(350,97)"/>
<path d="M0 0 C1.65 1.32 3.3 2.64 5 4 C4.67 5.65 4.34 7.3 4 9 C3.01 9.33 2.02 9.66 1 10 C0.34 8.35 -0.32 6.7 -1 5 C-0.34 5 0.32 5 1 5 C1 4.34 1 3.68 1 3 C0.34 3 -0.32 3 -1 3 C-0.67 2.01 -0.34 1.02 0 0 Z " fill="#5C8058" transform="translate(345,93)"/>
<path d="M0 0 C3.97169202 2.17318997 6.77085357 3.77085357 10 7 C7.03 7 4.06 7 1 7 C0.67 4.69 0.34 2.38 0 0 Z " fill="#63816C" transform="translate(201,366)"/>
<path d="M0 0 C4.56454251 0.54339792 7.9728176 1.79463821 12 4 C11.67 5.32 11.34 6.64 11 8 C9.16399255 6.85845641 7.33125195 5.71165684 5.5 4.5625 C4.4790625 3.92441406 3.458125 3.28632813 2.40625 2.62890625 C1.6121875 2.09136719 0.818125 1.55382812 0 1 C0 0.67 0 0.34 0 0 Z " fill="#7D9C77" transform="translate(206,357)"/>
<path d="M0 0 C2.31 0.33 4.62 0.66 7 1 C5.86525052 4.40424844 5.03188696 5.21653709 2 7 C1.01 6.67 0.02 6.34 -1 6 C-0.67 5.34 -0.34 4.68 0 4 C0.66 4 1.32 4 2 4 C1.34 2.68 0.68 1.36 0 0 Z " fill="#537953" transform="translate(308,354)"/>
<path d="M0 0 C1.98 0 3.96 0 6 0 C2.45960866 2.9156164 -1.1626772 5.50127818 -5 8 C-5 6.68 -5 5.36 -5 4 C-3.35 3.34 -1.7 2.68 0 2 C0 1.34 0 0.68 0 0 Z " fill="#658262" transform="translate(334,339)"/>
<path d="M0 0 C4.91541209 0.45724764 7.33870158 1.73451763 11 5 C11.99 5.66 12.98 6.32 14 7 C12.328125 7.7109375 12.328125 7.7109375 10 8 C7.421875 6.6015625 7.421875 6.6015625 4.75 4.625 C3.85796875 3.97789062 2.9659375 3.33078125 2.046875 2.6640625 C1.37140625 2.11492187 0.6959375 1.56578125 0 1 C0 0.67 0 0.34 0 0 Z " fill="#83A179" transform="translate(156,243)"/>
<path d="M0 0 C1 3 1 3 0.25 5.625 C-1 8 -1 8 -4 9 C-4.73323796 11.01508358 -4.73323796 11.01508358 -5 13 C-6 10 -6 10 -5.0390625 7.7734375 C-4.57242188 6.98195312 -4.10578125 6.19046875 -3.625 5.375 C-3.16351563 4.57835937 -2.70203125 3.78171875 -2.2265625 2.9609375 C-1 1 -1 1 0 0 Z " fill="#75936E" transform="translate(69,195)"/>
<path d="M0 0 C0.33 0.66 0.66 1.32 1 2 C-1.63172778 4.91369861 -3.22909273 6.12012164 -7 7 C-7.99 8.485 -7.99 8.485 -9 10 C-10.32 9.67 -11.64 9.34 -13 9 C-8.71 6.03 -4.42 3.06 0 0 Z " fill="#59785E" transform="translate(350,344)"/>
<path d="M0 0 C1.2065625 0.0309375 1.2065625 0.0309375 2.4375 0.0625 C-0.67266455 3.35038824 -3.57868925 5.89985988 -7.5625 8.0625 C-7.5625 7.0725 -7.5625 6.0825 -7.5625 5.0625 C-6.5725 5.0625 -5.5825 5.0625 -4.5625 5.0625 C-4.3459375 4.1034375 -4.3459375 4.1034375 -4.125 3.125 C-3.30589691 0.12162199 -3.19313651 0.07788138 0 0 Z " fill="#526D58" transform="translate(412.5625,370.9375)"/>
<path d="M0 0 C0.33 0.99 0.66 1.98 1 3 C-1.31 4.98 -3.62 6.96 -6 9 C-6.66 8.34 -7.32 7.68 -8 7 C-5.36 4.69 -2.72 2.38 0 0 Z " fill="#88A279" transform="translate(150,114)"/>
<path d="M0 0 C-3.17320782 3.53586014 -5.16743695 5.58578031 -10 6 C-9.34 5.67 -8.68 5.34 -8 5 C-8 4.34 -8 3.68 -8 3 C-7.34 3 -6.68 3 -6 3 C-6 2.01 -6 1.02 -6 0 C-3 -1 -3 -1 0 0 Z " fill="#58745C" transform="translate(269,474)"/>
<path d="M0 0 C3.55780196 0.60990891 6.6828589 1.5783681 10 3 C10 3.99 10 4.98 10 6 C6.62972148 6 5.93297304 5.50175992 3.3125 3.5625 C2.68988281 3.11003906 2.06726563 2.65757812 1.42578125 2.19140625 C0.95527344 1.79824219 0.48476562 1.40507812 0 1 C0 0.67 0 0.34 0 0 Z " fill="#5E7C67" transform="translate(203,440)"/>
<path d="M0 0 C-2.64 1.98 -5.28 3.96 -8 6 C-8.33 5.01 -8.66 4.02 -9 3 C-7 0 -7 0 -5.0625 -0.75 C-3 -1 -3 -1 0 0 Z " fill="#54725A" transform="translate(374,401)"/>
<path d="M0 0 C0.99 0.33 1.98 0.66 3 1 C-0.12621626 4.39417765 -2.56541027 6.6062718 -7 8 C-6.67 7.01 -6.34 6.02 -6 5 C-5.34 5 -4.68 5 -4 5 C-4 4.34 -4 3.68 -4 3 C-2.1875 1.3125 -2.1875 1.3125 0 0 Z " fill="#57705A" transform="translate(394,383)"/>
<path d="M0 0 C0.33 0.66 0.66 1.32 1 2 C1.66 2.33 2.32 2.66 3 3 C-1.75 6 -1.75 6 -4 6 C-4 6.66 -4 7.32 -4 8 C-5.32 8.33 -6.64 8.66 -8 9 C-8.33 8.34 -8.66 7.68 -9 7 C-7.68 7 -6.36 7 -5 7 C-5 6.34 -5 5.68 -5 5 C-4.34 5 -3.68 5 -3 5 C-3 4.01 -3 3.02 -3 2 C-2.01 1.34 -1.02 0.68 0 0 Z " fill="#748E74" transform="translate(303,361)"/>
<path d="M0 0 C3.37462715 0.54723683 5.08235 1.0549 8 3 C8.33 3.99 8.66 4.98 9 6 C9.66 6.33 10.32 6.66 11 7 C10.67 7.66 10.34 8.32 10 9 C8.66102417 8.04956626 7.32894573 7.08940853 6 6.125 C5.2575 5.59132813 4.515 5.05765625 3.75 4.5078125 C3.1725 4.01023437 2.595 3.51265625 2 3 C2 2.34 2 1.68 2 1 C1.34 0.67 0.68 0.34 0 0 Z " fill="#65826D" transform="translate(81,353)"/>
<path d="M0 0 C2.6875 0.875 2.6875 0.875 5 2 C5 3.65 5 5.3 5 7 C2.36 5.35 -0.28 3.7 -3 2 C-2.01 1.34 -1.02 0.68 0 0 Z " fill="#789874" transform="translate(195,346)"/>
<path d="M0 0 C2.31 0.33 4.62 0.66 7 1 C7.33 1.99 7.66 2.98 8 4 C8.99 4.33 9.98 4.66 11 5 C10.67 5.99 10.34 6.98 10 8 C8.33055479 6.85821872 6.6645052 5.71147095 5 4.5625 C4.071875 3.92441406 3.14375 3.28632813 2.1875 2.62890625 C1.465625 2.09136719 0.74375 1.55382812 0 1 C0 0.67 0 0.34 0 0 Z " fill="#759570" transform="translate(155,321)"/>
<path d="M0 0 C4.455 2.97 4.455 2.97 9 6 C5.29847322 6.92538169 4.36541838 7.08174162 1 6 C0.67 4.02 0.34 2.04 0 0 Z " fill="#5A7D62" transform="translate(130,316)"/>
<path d="M0 0 C-1.62339805 1.70884005 -3.29319053 3.37446717 -5 5 C-5.66 5 -6.32 5 -7 5 C-7.33 4.01 -7.66 3.02 -8 2 C-6.14210462 -1.71579076 -3.44525918 -1.06921837 0 0 Z " fill="#6C8C68" transform="translate(273,307)"/>
<path d="M0 0 C0.33 0.99 0.66 1.98 1 3 C0.38125 3.0825 -0.2375 3.165 -0.875 3.25 C-3.18437567 3.81258459 -3.18437567 3.81258459 -4.25 6.0625 C-4.4975 6.701875 -4.745 7.34125 -5 8 C-6.65 8 -8.3 8 -10 8 C-6.97727468 4.74475735 -3.74281699 2.38179263 0 0 Z " fill="#708E72" transform="translate(326,282)"/>
<path d="M0 0 C2.97 1.65 5.94 3.3 9 5 C8.67 5.66 8.34 6.32 8 7 C6.68 7 5.36 7 4 7 C3.896875 6.360625 3.79375 5.72125 3.6875 5.0625 C3.460625 4.381875 3.23375 3.70125 3 3 C2.01 2.67 1.02 2.34 0 2 C0 1.34 0 0.68 0 0 Z " fill="#789774" transform="translate(166,263)"/>
<path d="M0 0 C0.99 0.33 1.98 0.66 3 1 C2.02526874 2.66926454 1.04510211 4.33535642 0.0625 6 C-0.75541016 7.3921875 -0.75541016 7.3921875 -1.58984375 8.8125 C-2.05519531 9.534375 -2.52054687 10.25625 -3 11 C-3.33 11 -3.66 11 -4 11 C-4 9.35 -4 7.7 -4 6 C-3.01 6 -2.02 6 -1 6 C-1.020625 5.195625 -1.04125 4.39125 -1.0625 3.5625 C-1 1 -1 1 0 0 Z " fill="#7D9879" transform="translate(396,208)"/>
<path d="M0 0 C1.98 0 3.96 0 6 0 C3.2180632 3.27286682 -0.27954067 4.96427697 -4 7 C-4 6.01 -4 5.02 -4 4 C-2.68 3.67 -1.36 3.34 0 3 C0 2.01 0 1.02 0 0 Z " fill="#4B6751" transform="translate(346,416)"/>
<path d="M0 0 C4.3177458 0.50797009 8.03302114 1.19682779 12 3 C11.67 3.66 11.34 4.32 11 5 C4.6 4.50769231 4.6 4.50769231 1.5625 1.9375 C1.046875 1.298125 0.53125 0.65875 0 0 Z " fill="#7A9277" transform="translate(252,389)"/>
<path d="M0 0 C0.66 0.33 1.32 0.66 2 1 C1.34 2.32 0.68 3.64 0 5 C-0.99 4.67 -1.98 4.34 -3 4 C-3.33 5.32 -3.66 6.64 -4 8 C-5.32 7.34 -6.64 6.68 -8 6 C-5.36 4.02 -2.72 2.04 0 0 Z " fill="#4C6A52" transform="translate(368,331)"/>
<path d="M0 0 C3.5786304 1.65167557 6.74820188 3.78286492 10 6 C9.01 6.495 9.01 6.495 8 7 C7.01 6.67 6.02 6.34 5 6 C5 6.66 5 7.32 5 8 C4.34 7.67 3.68 7.34 3 7 C3 5.68 3 4.36 3 3 C2.34 3 1.68 3 1 3 C0.67 2.01 0.34 1.02 0 0 Z " fill="#6D8B75" transform="translate(95,292)"/>
<path d="M0 0 C0.33 0.66 0.66 1.32 1 2 C1.66 2.33 2.32 2.66 3 3 C2.34 3 1.68 3 1 3 C1 3.66 1 4.32 1 5 C-1.8125 7.1875 -1.8125 7.1875 -5 9 C-5.99 8.67 -6.98 8.34 -8 8 C-7.01 7.01 -6.02 6.02 -5 5 C-4.34 5.33 -3.68 5.66 -3 6 C-3 5.34 -3 4.68 -3 4 C-2.01 4 -1.02 4 0 4 C0 2.68 0 1.36 0 0 Z " fill="#779378" transform="translate(435,268)"/>
<path d="M0 0 C0.99 0 1.98 0 3 0 C3 0.66 3 1.32 3 2 C2.34 2 1.68 2 1 2 C0.7525 2.598125 0.505 3.19625 0.25 3.8125 C-1.16370012 6.28647521 -2.65055383 7.43370255 -5 9 C-4.42636089 5.12793601 -2.65894107 2.81534937 0 0 Z " fill="#758F74" transform="translate(445,259)"/>
<path d="M0 0 C-1.1427919 1.16964602 -2.28931715 2.33564556 -3.4375 3.5 C-4.07558594 4.1496875 -4.71367187 4.799375 -5.37109375 5.46875 C-7 7 -7 7 -8 7 C-8.3125 4.6875 -8.3125 4.6875 -8 2 C-3.92125984 -1.30708661 -3.92125984 -1.30708661 0 0 Z " fill="#86A683" transform="translate(388,225)"/>
<path d="M0 0 C0.33 0.66 0.66 1.32 1 2 C1.66 2.33 2.32 2.66 3 3 C1.73308493 3.67408308 0.46129251 4.33900497 -0.8125 5 C-1.52019531 5.37125 -2.22789062 5.7425 -2.95703125 6.125 C-5 7 -5 7 -8 7 C-5.36 4.69 -2.72 2.38 0 0 Z " fill="#92AE8A" transform="translate(208,64)"/>
<path d="M0 0 C1.32 0.66 2.64 1.32 4 2 C4 2.66 4 3.32 4 4 C4.99 4.33 5.98 4.66 7 5 C6.34 5.66 5.68 6.32 5 7 C2.36 5.35 -0.28 3.7 -3 2 C-2.01 1.34 -1.02 0.68 0 0 Z " fill="#52765C" transform="translate(117,377)"/>
<path d="M0 0 C1.65 0 3.3 0 5 0 C5 0.99 5 1.98 5 3 C6.65 3.33 8.3 3.66 10 4 C10 4.99 10 5.98 10 7 C6.42032008 5.34784004 3.22017048 3.26875648 0 1 C0 0.67 0 0.34 0 0 Z " fill="#587963" transform="translate(102,369)"/>
<path d="M0 0 C0.66 0 1.32 0 2 0 C1.39301257 4.12751449 -0.03810791 7.3321148 -2 11 C-2.66 9.68 -3.32 8.36 -4 7 C-3.34 6.01 -2.68 5.02 -2 4 C-1.31822584 2.67432801 -0.64808564 1.34246312 0 0 Z " fill="#59735E" transform="translate(456,324)"/>
<path d="M0 0 C3.375 0.25 3.375 0.25 7 1 C8.4375 3.0625 8.4375 3.0625 9 5 C4.98525763 5 3.18024863 3.33218233 0 1 C0 0.67 0 0.34 0 0 Z " fill="#769372" transform="translate(85,272)"/>
<path d="M0 0 C0.66 0.66 1.32 1.32 2 2 C1.75 5.5625 1.75 5.5625 1 9 C0.01 9.495 0.01 9.495 -1 10 C-1.9765625 3.9453125 -1.9765625 3.9453125 -2 2 C-1.34 1.34 -0.68 0.68 0 0 Z " fill="#638262" transform="translate(458,209)"/>
<path d="M0 0 C2.97 1.65 5.94 3.3 9 5 C8.67 5.66 8.34 6.32 8 7 C4.5625 5.75 4.5625 5.75 1 4 C0.67 2.68 0.34 1.36 0 0 Z " fill="#6A8571" transform="translate(175,348)"/>
<path d="M0 0 C0.99 0.66 1.98 1.32 3 2 C1.35 3.98 -0.3 5.96 -2 8 C-2.66 7.01 -3.32 6.02 -4 5 C-3.34 4.01 -2.68 3.02 -2 2 C-1.34 2 -0.68 2 0 2 C0 1.34 0 0.68 0 0 Z " fill="#52735A" transform="translate(444,343)"/>
<path d="M0 0 C4.55384615 -0.36923077 4.55384615 -0.36923077 6.8125 1.5 C7.204375 1.995 7.59625 2.49 8 3 C7.67 3.99 7.34 4.98 7 6 C5.83054208 5.19152271 4.66449539 4.37810888 3.5 3.5625 C2.8503125 3.11003906 2.200625 2.65757812 1.53125 2.19140625 C1.0259375 1.79824219 0.520625 1.40507812 0 1 C0 0.67 0 0.34 0 0 Z " fill="#799B74" transform="translate(168,330)"/>
<path d="M0 0 C0.66 0.33 1.32 0.66 2 1 C1.34 2.65 0.68 4.3 0 6 C-0.99 5.67 -1.98 5.34 -3 5 C-3.66 5.66 -4.32 6.32 -5 7 C-5.66 6.34 -6.32 5.68 -7 5 C-4.69 3.35 -2.38 1.7 0 0 Z " fill="#749176" transform="translate(364,255)"/>
<path d="M0 0 C0.66 0.33 1.32 0.66 2 1 C1.67 1.66 1.34 2.32 1 3 C0.34 3 -0.32 3 -1 3 C-1.33 4.32 -1.66 5.64 -2 7 C-3.65 7 -5.3 7 -7 7 C-4.66666667 4.66666667 -2.33333333 2.33333333 0 0 Z " fill="#8BA983" transform="translate(166,100)"/>
<path d="M0 0 C2.03833424 1.2739589 4.03852126 2.61061923 6 4 C6 4.66 6 5.32 6 6 C6.66 6.33 7.32 6.66 8 7 C7.01 7.33 6.02 7.66 5 8 C2.5 5.6875 2.5 5.6875 0 3 C0 2.01 0 1.02 0 0 Z " fill="#72906E" transform="translate(295,50)"/>
<path d="M0 0 C4.875 1.75 4.875 1.75 6 4 C5.34 4.66 4.68 5.32 4 6 C1.375 5.625 1.375 5.625 -1 5 C-0.67 3.35 -0.34 1.7 0 0 Z " fill="#446D51" transform="translate(250,401)"/>
<path d="M0 0 C0.33 0.66 0.66 1.32 1 2 C3.52733235 2.65555119 3.52733235 2.65555119 6 3 C5.67 4.32 5.34 5.64 5 7 C2.69 5.35 0.38 3.7 -2 2 C-1.34 1.34 -0.68 0.68 0 0 Z " fill="#799C75" transform="translate(184,339)"/>
<path d="M0 0 C0.66 0.99 1.32 1.98 2 3 C-2.75 7 -2.75 7 -5 7 C-3.70700306 4.11562221 -2.34058637 2.12780579 0 0 Z " fill="#7A9573" transform="translate(75,188)"/>
<path d="M0 0 C0.33 0.99 0.66 1.98 1 3 C-0.32 3.33 -1.64 3.66 -3 4 C-3.33 5.32 -3.66 6.64 -4 8 C-4.99 7.67 -5.98 7.34 -7 7 C-4.66666667 4.66666667 -2.33333333 2.33333333 0 0 Z " fill="#88A77F" transform="translate(228,47)"/>
<path d="M0 0 C0.33 1.32 0.66 2.64 1 4 C-0.98 5.32 -2.96 6.64 -5 8 C-5.33 7.01 -5.66 6.02 -6 5 C-4.02 3.35 -2.04 1.7 0 0 Z " fill="#7F9E77" transform="translate(235,41)"/>
<path d="M0 0 C-1.04874998 2.62187494 -1.64931313 3.79371361 -4.125 5.25 C-4.74375 5.4975 -5.3625 5.745 -6 6 C-5.625 3.5625 -5.625 3.5625 -5 1 C-3 0 -3 0 0 0 Z " fill="#5E825D" transform="translate(365,320)"/>
<path d="M0 0 C1.65 0.33 3.3 0.66 5 1 C3.68 2.32 2.36 3.64 1 5 C0.01 4.67 -0.98 4.34 -2 4 C-1.34 2.68 -0.68 1.36 0 0 Z " fill="#779875" transform="translate(280,298)"/>
<path d="M0 0 C0.99 0.99 1.98 1.98 3 3 C-0.75 6 -0.75 6 -3 6 C-2.625 3.5625 -2.625 3.5625 -2 1 C-1.34 0.67 -0.68 0.34 0 0 Z " fill="#688B66" transform="translate(303,282)"/>
<path d="M0 0 C0.66 0.33 1.32 0.66 2 1 C-0.23407889 4.35111834 -1.26215824 5.81553956 -5.25 6.8125 C-6.61125 6.9053125 -6.61125 6.9053125 -8 7 C-5.4837822 4.39391727 -2.94865641 2.10618315 0 0 Z " fill="#789277" transform="translate(374,248)"/>
<path d="M0 0 C2 3 2 3 3 6 C2.67 6.66 2.34 7.32 2 8 C1.34 8 0.68 8 0 8 C0 9.65 0 11.3 0 13 C-0.33 13 -0.66 13 -1 13 C-0.67 8.71 -0.34 4.42 0 0 Z " fill="#7F9B7D" transform="translate(417,181)"/>
<path d="M0 0 C0.66 0.33 1.32 0.66 2 1 C1.375 2.9375 1.375 2.9375 0 5 C-3.125 5.75 -3.125 5.75 -6 6 C-4 4 -2 2 0 0 Z " fill="#7EA375" transform="translate(215,58)"/>
<path d="M0 0 C1.32 0.33 2.64 0.66 4 1 C4.33 2.32 4.66 3.64 5 5 C3.35 4.67 1.7 4.34 0 4 C0 2.68 0 1.36 0 0 Z " fill="#3E684B" transform="translate(79,348)"/>
<path d="M0 0 C1.32 0.66 2.64 1.32 4 2 C-0.75 6 -0.75 6 -3 6 C-3 3 -3 3 -1.5 1.3125 C-0.7575 0.6628125 -0.7575 0.6628125 0 0 Z " fill="#7D997C" transform="translate(292,290)"/>
<path d="M0 0 C0.99 0 1.98 0 3 0 C1.66666667 2.66666667 0.33333333 5.33333333 -1 8 C-1.33 8 -1.66 8 -2 8 C-2.20086443 4.28400809 -2.1519437 3.22791555 0 0 Z " fill="#517752" transform="translate(397,228)"/>
<path d="M0 0 C0.33 0 0.66 0 1 0 C1.25 2.25 1.25 2.25 1 5 C-0.875 7.3125 -0.875 7.3125 -3 9 C-3.66 9 -4.32 9 -5 9 C-3.50164236 5.88802644 -1.86022073 2.91164984 0 0 Z " fill="#6C8B6C" transform="translate(404,219)"/>
<path d="M0 0 C1.98 0.99 3.96 1.98 6 3 C4.68 4.32 3.36 5.64 2 7 C1.34 6.67 0.68 6.34 0 6 C0 4.02 0 2.04 0 0 Z " fill="#688760" transform="translate(426,174)"/>
<path d="M0 0 C1.65 1.65 3.3 3.3 5 5 C1.25 6.125 1.25 6.125 -1 5 C-0.67 3.35 -0.34 1.7 0 0 Z " fill="#6E916A" transform="translate(379,122)"/>
<path d="M0 0 C0 3 0 3 -2 6 C-4.625 6.6875 -4.625 6.6875 -7 7 C-5.625 5 -5.625 5 -4 3 C-3.34 3 -2.68 3 -2 3 C-2 2.34 -2 1.68 -2 1 C-1.34 0.67 -0.68 0.34 0 0 Z " fill="#8FAC87" transform="translate(141,122)"/>
<path d="M0 0 C0.66 0.33 1.32 0.66 2 1 C1.67 1.66 1.34 2.32 1 3 C0.34 3 -0.32 3 -1 3 C-1.33 4.32 -1.66 5.64 -2 7 C-3.32 7 -4.64 7 -6 7 C-6 6.34 -6 5.68 -6 5 C-4.04072937 3.2856382 -2.04119788 1.61594832 0 0 Z " fill="#95AD8E" transform="translate(174,93)"/>
<path d="M0 0 C2.31 1.65 4.62 3.3 7 5 C5.02 5.99 5.02 5.99 3 7 C0 2.25 0 2.25 0 0 Z " fill="#85A27D" transform="translate(303,57)"/>
<path d="M0 0 C6.64615385 1.47692308 6.64615385 1.47692308 8.4375 4.125 C8.7159375 5.053125 8.7159375 5.053125 9 6 C5.06326356 4.68775452 2.77280706 3.08089673 0 0 Z " fill="#567861" transform="translate(237,464)"/>
<path d="M0 0 C2.33944736 0.28730055 4.6739143 0.61936779 7 1 C5.68 2.32 4.36 3.64 3 5 C1.68 3.68 0.36 2.36 -1 1 C-0.67 0.67 -0.34 0.34 0 0 Z " fill="#6D8E6A" transform="translate(239,378)"/>
<path d="M0 0 C0.86625 0.556875 0.86625 0.556875 1.75 1.125 C-0.725 2.61 -0.725 2.61 -3.25 4.125 C-3.25 3.465 -3.25 2.805 -3.25 2.125 C-4.24 2.455 -5.23 2.785 -6.25 3.125 C-6.25 2.465 -6.25 1.805 -6.25 1.125 C-2.80384615 -1.09038462 -2.80384615 -1.09038462 0 0 Z " fill="#638E66" transform="translate(292.25,370.875)"/>
<path d="M0 0 C2.97 0.495 2.97 0.495 6 1 C6.33 2.32 6.66 3.64 7 5 C4.11562221 3.70700306 2.12780579 2.34058637 0 0 Z " fill="#588266" transform="translate(95,364)"/>
<path d="M0 0 C2.25 0.25 2.25 0.25 4 1 C3.01 2.485 3.01 2.485 2 4 C-1.125 4.1875 -1.125 4.1875 -4 4 C-2.25 1.9375 -2.25 1.9375 0 0 Z " fill="#567753" transform="translate(302,299)"/>
<path d="M0 0 C1.32 0.66 2.64 1.32 4 2 C0.25 5 0.25 5 -2 5 C-2.33 4.01 -2.66 3.02 -3 2 C-2.01 1.34 -1.02 0.68 0 0 Z " fill="#739271" transform="translate(332,262)"/>
<path d="M0 0 C0.66 0.99 1.32 1.98 2 3 C2.99 3.33 3.98 3.66 5 4 C5.33 5.65 5.66 7.3 6 9 C0.125 4.375 0.125 4.375 -1 1 C-0.67 0.67 -0.34 0.34 0 0 Z " fill="#98AF96" transform="translate(74,259)"/>
<path d="M0 0 C0.66 0 1.32 0 2 0 C2 0.66 2 1.32 2 2 C2.66 2 3.32 2 4 2 C4 2.66 4 3.32 4 4 C4.66 4 5.32 4 6 4 C6 4.66 6 5.32 6 6 C3.03824877 5.38722388 1.61941217 4.74627478 -1 3 C-0.67 2.01 -0.34 1.02 0 0 Z " fill="#869E82" transform="translate(124,231)"/>
<path d="M0 0 C0.91058531 3.07322544 1.08886184 5.80097361 1 9 C-0.89213369 6.61426621 -2.02391783 4.92824652 -3 2 C-2.01 1.34 -1.02 0.68 0 0 Z " fill="#86A67D" transform="translate(122,202)"/>
<path d="M0 0 C1.65 0.99 3.3 1.98 5 3 C4.67 3.99 4.34 4.98 4 6 C3.67 5.34 3.34 4.68 3 4 C0.97536745 3.34786708 0.97536745 3.34786708 -1 3 C-0.67 2.01 -0.34 1.02 0 0 Z " fill="#6C876A" transform="translate(442,186)"/>
<path d="M0 0 C0.66 0.99 1.32 1.98 2 3 C0.35 4.32 -1.3 5.64 -3 7 C-3 3.48283697 -2.17554415 2.62878252 0 0 Z " fill="#90AB89" transform="translate(128,135)"/>
<path d="M0 0 C1.98 1.65 3.96 3.3 6 5 C5.34 5.66 4.68 6.32 4 7 C2.35 5.35 0.7 3.7 -1 2 C-0.67 1.34 -0.34 0.68 0 0 Z " fill="#779374" transform="translate(322,73)"/>
<path d="M0 0 C-1.65 1.32 -3.3 2.64 -5 4 C-5.33 2.68 -5.66 1.36 -6 0 C-3.50907189 -1.24546405 -2.58919267 -0.7767578 0 0 Z " fill="#456649" transform="translate(315,442)"/>
<path d="M0 0 C0 2 0 2 -1.8125 4.125 C-4 6 -4 6 -7 6 C-5.81636731 2.44910192 -3.99368042 0 0 0 Z " fill="#4D6950" transform="translate(283,392)"/>
<path d="M0 0 C0.66 0 1.32 0 2 0 C1.67 1.65 1.34 3.3 1 5 C-0.32 5.33 -1.64 5.66 -3 6 C-1.125 1.125 -1.125 1.125 0 0 Z " fill="#13421F" transform="translate(387,319)"/>
<path d="M0 0 C1.98 1.65 3.96 3.3 6 5 C5.67 5.66 5.34 6.32 5 7 C3.02 5.68 1.04 4.36 -1 3 C-0.67 2.01 -0.34 1.02 0 0 Z " fill="#849C81" transform="translate(133,303)"/>
<path d="M0 0 C0.66 0.33 1.32 0.66 2 1 C2 1.99 2 2.98 2 4 C-0.31 4.33 -2.62 4.66 -5 5 C-3.35 3.35 -1.7 1.7 0 0 Z " fill="#4B6A53" transform="translate(418,296)"/>
<path d="M0 0 C0.99 0.33 1.98 0.66 3 1 C1.625 3 1.625 3 0 5 C-0.66 5 -1.32 5 -2 5 C-1.125 1.125 -1.125 1.125 0 0 Z " fill="#527754" transform="translate(329,280)"/>
<path d="M0 0 C2.3125 0.1875 2.3125 0.1875 5 1 C6.8125 3.5625 6.8125 3.5625 8 6 C7.34 6 6.68 6 6 6 C6 5.34 6 4.68 6 4 C5.195625 3.71125 4.39125 3.4225 3.5625 3.125 C1 2 1 2 0 0 Z " fill="#85A57C" transform="translate(168,251)"/>
<path d="M0 0 C1.65 0 3.3 0 5 0 C5.66 1.32 6.32 2.64 7 4 C4 4 4 4 2 3 C2 2.34 2 1.68 2 1 C1.34 0.67 0.68 0.34 0 0 Z " fill="#85A37B" transform="translate(135,227)"/>
<path d="M0 0 C1.5625 1.6875 1.5625 1.6875 3 4 C2.6875 6.75 2.6875 6.75 2 9 C0.25165733 6.377486 -0.51529754 5.00515522 -1 2 C-0.67 1.34 -0.34 0.68 0 0 Z " fill="#89A780" transform="translate(117,194)"/>
<path d="M0 0 C0.66 0.33 1.32 0.66 2 1 C0.35 2.98 -1.3 4.96 -3 7 C-3.66 6.01 -4.32 5.02 -5 4 C-4.01 3.67 -3.02 3.34 -2 3 C-2 2.34 -2 1.68 -2 1 C-1.34 0.67 -0.68 0.34 0 0 Z " fill="#86A07F" transform="translate(87,178)"/>
<path d="M0 0 C2.31 1.65 4.62 3.3 7 5 C6.01 5.495 6.01 5.495 5 6 C2.375 5.0625 2.375 5.0625 0 4 C0 2.68 0 1.36 0 0 Z " fill="#899D86" transform="translate(288,44)"/>
</svg>
